<svg width="30" height="30" viewBox="0 0 30 30" fill="none" xmlns="http://www.w3.org/2000/svg">
<circle cx="15" cy="15" r="15" fill="#63D8C0"/>
<path d="M16.5216 18.52H13.5616L13.0216 7H16.9816L16.5216 18.52ZM15.0416 20.6C15.5083 20.6 15.8883 20.7467 16.1816 21.04C16.475 21.3333 16.6216 21.7133 16.6216 22.18C16.6216 22.6333 16.475 23.0067 16.1816 23.3C15.8883 23.6067 15.5083 23.76 15.0416 23.76C14.5883 23.76 14.2083 23.6067 13.9016 23.3C13.6083 23.0067 13.4616 22.6333 13.4616 22.18C13.4616 21.7133 13.6083 21.3333 13.9016 21.04C14.2083 20.7467 14.5883 20.6 15.0416 20.6Z" fill="white"/>
</svg>
