<svg width="30" height="30" viewBox="0 0 30 30" fill="none" xmlns="http://www.w3.org/2000/svg">
<path d="M12.9875 3.9755C13.6265 1.3415 17.3735 1.3415 18.0125 3.9755C18.1084 4.3712 18.2963 4.73867 18.5611 5.048C18.8258 5.35733 19.1598 5.59978 19.536 5.75562C19.9121 5.91146 20.3197 5.97628 20.7257 5.9448C21.1316 5.91333 21.5244 5.78645 21.872 5.5745C24.1865 4.1645 26.837 6.8135 25.427 9.1295C25.2153 9.47698 25.0887 9.86951 25.0573 10.2752C25.0259 10.6808 25.0906 11.0882 25.2463 11.4641C25.4019 11.84 25.6441 12.1739 25.9531 12.4386C26.2621 12.7033 26.6292 12.8914 27.0245 12.9875C29.6585 13.6265 29.6585 17.3735 27.0245 18.0125C26.6288 18.1084 26.2613 18.2963 25.952 18.5611C25.6427 18.8258 25.4002 19.1598 25.2444 19.536C25.0885 19.9121 25.0237 20.3197 25.0552 20.7257C25.0867 21.1316 25.2135 21.5244 25.4255 21.872C26.8355 24.1865 24.1865 26.837 21.8705 25.427C21.523 25.2153 21.1305 25.0887 20.7248 25.0573C20.3192 25.0259 19.9118 25.0906 19.5359 25.2463C19.16 25.4019 18.8261 25.6441 18.5614 25.9531C18.2967 26.2621 18.1086 26.6292 18.0125 27.0245C17.3735 29.6585 13.6265 29.6585 12.9875 27.0245C12.8916 26.6288 12.7037 26.2613 12.4389 25.952C12.1742 25.6427 11.8402 25.4002 11.464 25.2444C11.0879 25.0885 10.6803 25.0237 10.2743 25.0552C9.86839 25.0867 9.47563 25.2135 9.128 25.4255C6.8135 26.8355 4.163 24.1865 5.573 21.8705C5.78465 21.523 5.91133 21.1305 5.94273 20.7248C5.97413 20.3192 5.90936 19.9118 5.75371 19.5359C5.59805 19.16 5.35589 18.8261 5.04691 18.5614C4.73793 18.2967 4.37085 18.1086 3.9755 18.0125C1.3415 17.3735 1.3415 13.6265 3.9755 12.9875C4.3712 12.8916 4.73867 12.7037 5.048 12.4389C5.35733 12.1742 5.59978 11.8402 5.75562 11.464C5.91146 11.0879 5.97628 10.6803 5.9448 10.2743C5.91333 9.86839 5.78645 9.47563 5.5745 9.128C4.1645 6.8135 6.8135 4.163 9.1295 5.573C10.6295 6.485 12.5735 5.678 12.9875 3.9755Z" stroke="#676767" stroke-width="1.5" stroke-linecap="round" stroke-linejoin="round"/>
<path d="M10.9996 15.4999C10.9996 16.6934 11.4737 17.8379 12.3177 18.6819C13.1616 19.5258 14.3062 19.9999 15.4996 19.9999C16.6931 19.9999 17.8377 19.5258 18.6816 18.6819C19.5255 17.8379 19.9996 16.6934 19.9996 15.4999C19.9996 14.3064 19.5255 13.1618 18.6816 12.3179C17.8377 11.474 16.6931 10.9999 15.4996 10.9999C14.3062 10.9999 13.1616 11.474 12.3177 12.3179C11.4737 13.1618 10.9996 14.3064 10.9996 15.4999Z" stroke="#676767" stroke-width="1.5" stroke-linecap="round" stroke-linejoin="round"/>
</svg>
